<svg xmlns="http://www.w3.org/2000/svg" width="720" height="720" viewBox="0 0 720 720" version="1.1">
	<path d="M 0 360.001 L 0 720.003 360.250 719.751 L 720.500 719.500 720.751 359.750 L 721.003 -0 360.501 -0 L 0 0 0 360.001 M 0.495 360.500 C 0.495 558.500, 0.609 639.649, 0.750 540.831 C 0.890 442.013, 0.890 280.013, 0.750 180.831 C 0.609 81.649, 0.495 162.500, 0.495 360.500 M 458 70.301 C 484.594 83.692, 502.786 96.744, 523.055 116.972 C 537.424 131.313, 543.693 139.060, 556.799 158.670 C 564.448 170.116, 567 173.267, 567 171.267 C 567 169.549, 556.831 152.749, 549.767 142.797 C 541.173 130.688, 516.230 105.063, 504.456 96.247 C 493.860 88.313, 481.379 80.294, 471.500 75.074 C 463.522 70.858, 445.821 63, 444.301 63 C 443.861 63, 450.025 66.286, 458 70.301 M 341.500 76.127 C 336 76.587, 330 76.719, 328.167 76.421 C 324.061 75.752, 321.790 77.143, 312.644 85.920 C 298.320 99.667, 286.418 118.849, 276.025 144.938 C 269.873 160.379, 264.818 182.467, 267.867 180.582 C 268.490 180.197, 269 179.451, 269 178.925 C 269 177.854, 277.986 152.735, 278.600 152.088 C 278.815 151.861, 280.177 152.215, 281.625 152.875 C 283.073 153.535, 284.012 154.322, 283.710 154.623 C 283.409 154.925, 283.991 156.145, 285.005 157.336 C 286.019 158.526, 287.670 160.513, 288.674 161.751 C 290.053 163.452, 292.888 164.496, 300.264 166.021 C 305.633 167.131, 312.380 168.967, 315.255 170.101 C 320.465 172.154, 324.587 172.561, 348.359 173.368 C 354.332 173.570, 359.507 174.193, 359.859 174.752 C 360.735 176.141, 368.279 176.468, 375.500 175.430 C 380.882 174.657, 381.062 174.665, 384.500 175.845 C 391.295 178.177, 402.185 179.453, 413.500 179.241 C 421.549 179.090, 427.420 179.507, 431.331 180.508 C 440.637 182.889, 442.594 182.576, 445.430 178.250 C 447.796 174.640, 447.837 174.295, 446.529 169 C 441.417 148.303, 429.046 121.122, 417.341 104.865 C 410.578 95.472, 398.160 82.761, 392.532 79.472 C 385.964 75.634, 364.344 74.217, 341.500 76.127 M 407.924 82.330 C 410.472 85.136, 411.020 85.481, 410.969 84.250 C 410.951 83.838, 409.714 82.636, 408.219 81.580 L 405.500 79.661 407.924 82.330 M 427.374 92.372 C 450.575 115.364, 468.746 149.021, 476.411 183.199 C 477.835 189.547, 479 195.030, 479 195.384 C 479 196.323, 472.086 193.298, 467.839 190.501 C 463.255 187.482, 462.230 183.682, 464.638 178.632 C 466.174 175.412, 466.224 174.399, 465.070 169.895 C 462.778 160.955, 452.548 138.653, 445.163 126.500 C 436.494 112.234, 412 82.077, 412 85.669 C 412 86.267, 412.753 87.373, 413.673 88.128 C 414.594 88.882, 417.917 92.727, 421.059 96.671 C 437.378 117.160, 451.871 149.793, 458.414 180.783 C 459.836 187.520, 461 193.475, 461 194.016 C 461 195.951, 457.077 194.938, 449.427 191.025 C 441.235 186.836, 438.067 186.409, 434.039 188.948 C 432.586 189.864, 431.885 190.001, 432.328 189.282 C 432.911 188.336, 432.455 188.341, 430.289 189.304 C 419.655 194.033, 418.632 196.076, 425.750 198.371 C 438.666 202.535, 462.704 205.554, 506.500 208.510 C 546.422 211.204, 562.989 213.392, 563.015 215.971 C 563.028 217.242, 563.179 217.265, 563.914 216.105 C 564.645 214.951, 564.858 214.990, 565.149 216.329 C 565.398 217.476, 565.926 217.681, 566.962 217.033 C 568.215 216.250, 568.244 215.216, 567.160 209.810 C 566.459 206.310, 565.192 203.055, 564.317 202.500 C 563.449 201.950, 559.085 199.146, 554.620 196.268 C 550.154 193.391, 545.761 191.028, 544.857 191.018 C 543.953 191.008, 542.957 190.330, 542.643 189.512 C 542.329 188.694, 542.393 188.072, 542.786 188.130 C 546.152 188.632, 546.833 187.853, 546.833 183.501 C 546.833 179.788, 545.952 177.646, 541.792 171.251 C 516.925 133.021, 470.523 98.896, 424.832 85.237 L 418.163 83.243 427.374 92.372 M 283.356 88.925 C 272.225 93.164, 257.072 100.710, 256.875 102.111 C 256.806 102.600, 256.665 103.563, 256.560 104.250 C 256.456 104.938, 256.975 106.740, 257.714 108.256 L 259.057 111.011 263.164 108.916 C 265.423 107.764, 272.722 102.696, 279.385 97.655 C 286.048 92.613, 292.625 87.727, 294 86.797 C 298.138 83.997, 294.264 84.771, 283.356 88.925 M 481.999 185.750 C 482 186.479, 483.355 187.030, 485.250 187.071 C 487.038 187.110, 490.075 187.300, 492 187.493 C 493.925 187.686, 503.740 188.121, 513.811 188.459 C 523.882 188.798, 533.400 189.330, 534.962 189.642 C 536.524 189.955, 538.546 189.794, 539.457 189.284 C 542.114 187.797, 516.107 185.490, 487.249 184.652 C 483.633 184.547, 481.998 184.889, 481.999 185.750 M 561.912 224.282 C 561.039 224.952, 560.535 226.125, 560.792 226.889 C 561.060 227.686, 560.809 228, 560.202 227.625 C 559.620 227.265, 558.873 227.825, 558.542 228.868 C 558.211 229.911, 556.760 231.605, 555.318 232.633 C 553.875 233.660, 551.864 235.287, 550.848 236.250 C 548.693 238.291, 547.571 238.541, 548.601 236.750 C 549.019 236.024, 548.939 235.849, 548.410 236.333 C 547.910 236.792, 547.480 237.692, 547.455 238.333 C 547.430 238.975, 546.867 239.388, 546.205 239.250 C 545.542 239.113, 545.112 239.542, 545.250 240.205 C 545.388 240.867, 544.825 241.430, 544 241.455 C 542.763 241.492, 542.451 243.721, 542.221 254.149 C 541.970 265.501, 541.765 266.761, 540.221 266.444 C 538.604 266.112, 517.326 265.110, 510.286 265.034 L 507.072 265 506.786 255.262 C 506.550 247.223, 506.217 245.469, 504.879 245.213 C 503.907 245.027, 503.034 245.762, 502.697 247.052 C 502.386 248.241, 501.658 248.906, 501.067 248.542 C 499.830 247.777, 499.892 247.376, 499.801 256.750 L 499.731 264 493.866 264 C 488.667 264, 488 263.773, 488 262 C 488 260.900, 487.592 260, 487.094 260 C 486.595 260, 486.423 260.900, 486.710 262 C 487.221 263.954, 486.741 264, 465.676 264 C 450.459 264, 443.908 264.340, 443.405 265.155 C 443.012 265.789, 443.119 266.044, 443.643 265.720 C 444.167 265.397, 445.249 265.581, 446.048 266.131 C 447.103 266.856, 446.489 267.031, 443.799 266.771 C 441.190 266.519, 440.367 266.738, 441.011 267.513 C 441.647 268.280, 440.646 268.679, 437.712 268.829 C 432.638 269.088, 421.760 272.306, 424.273 272.804 C 425.862 273.119, 425.790 273.461, 423.575 276.094 C 421.228 278.883, 421.131 279.500, 421.658 288.266 C 421.963 293.345, 422.397 297.694, 422.622 297.932 C 422.846 298.169, 424.486 296.959, 426.265 295.243 C 431.494 290.199, 439 288.583, 439 292.500 C 439 293.251, 440.012 294.174, 441.250 294.551 C 444.294 295.479, 446.797 297.772, 449.630 302.230 C 453.965 309.053, 452.594 312.524, 442.105 321.282 C 433.195 328.720, 425.631 333.483, 421.169 334.463 C 419.417 334.848, 417.505 336.056, 416.921 337.147 C 416.192 338.509, 416.014 355.645, 416.354 391.816 C 416.751 434.083, 417.244 448.554, 418.845 465 C 419.943 476.275, 421.577 497.875, 422.477 513 C 423.377 528.125, 424.425 542.635, 424.807 545.245 L 425.500 549.991 430.286 543.985 C 436.162 536.612, 441.948 532.808, 448.200 532.207 C 452.709 531.774, 452.925 531.872, 453.510 534.628 C 453.845 536.207, 454.461 538.146, 454.879 538.937 C 455.584 540.271, 461.791 542.091, 469.933 543.352 C 477.632 544.544, 481.616 551.167, 480.550 561 C 479.338 572.177, 471.523 582.893, 459.063 590.462 C 453.755 593.686, 451.155 597, 453.933 597 C 454.446 597, 455.153 597.907, 455.505 599.015 C 455.886 600.215, 456.620 600.743, 457.322 600.323 C 458.196 599.798, 458.191 599.998, 457.301 601.099 C 456.330 602.300, 456.520 602.843, 458.301 603.952 C 460.308 605.202, 460.380 605.177, 459.128 603.661 C 458.373 602.747, 458.212 602, 458.771 602 C 461.289 602, 461.185 608.646, 458.638 610.518 C 455.995 612.460, 453 619.456, 453 623.688 C 453 627.727, 454.656 633, 455.924 633 C 456.256 633, 457.620 634.767, 458.954 636.926 C 462.517 642.691, 464.669 643.329, 472.205 640.855 C 475.663 639.719, 483.655 636.075, 489.965 632.755 C 502.961 625.919, 503.451 625.648, 522.254 614.887 C 541.042 604.135, 552.463 598.506, 560.620 595.978 C 571.750 592.527, 572.475 592.120, 575.341 587.711 C 579.775 580.891, 581.040 574.838, 580.825 561.465 C 580.676 552.140, 581.339 545.088, 583.831 529.500 C 585.589 518.500, 588.210 498.475, 589.655 485 C 591.959 463.516, 592.280 456.376, 592.262 427 C 592.236 384.754, 589.414 354.808, 579.945 296.299 C 576.474 274.851, 576.429 274.005, 578.750 273.985 C 583.023 273.947, 583.175 273.200, 583.588 250.132 L 583.985 228 573.973 228 L 563.962 228 564.589 225.500 C 565.272 222.780, 564.392 222.379, 561.912 224.282 M 486.564 255.707 C 486.022 257.132, 486.136 257.247, 487.124 256.267 C 487.808 255.588, 488.115 254.781, 487.807 254.474 C 487.499 254.166, 486.940 254.721, 486.564 255.707 M 535.695 257.057 C 535.254 258.745, 535.412 258.903, 536.579 257.935 C 538.170 256.614, 538.465 255, 537.117 255 C 536.631 255, 535.991 255.926, 535.695 257.057 M 410.833 268.750 C 410.494 282.496, 410.511 283.996, 411 283.962 C 411.275 283.943, 412.686 282.932, 414.135 281.714 C 417.981 278.483, 421 271.810, 421 266.540 L 421 262 416 262 L 411 262 410.833 268.750 M 438 265.059 C 438 265.641, 438.450 265.840, 439 265.500 C 439.550 265.160, 440 264.684, 440 264.441 C 440 264.198, 439.550 264, 439 264 C 438.450 264, 438 264.477, 438 265.059 M 295 274.367 C 295 274.677, 296.273 276.409, 297.829 278.215 C 307.978 289.997, 310.364 314.145, 307.990 381.044 C 307.435 396.695, 306.790 411.075, 306.556 413 C 305.673 420.289, 304.762 444.474, 305.393 443.890 C 305.756 443.555, 306.693 433.655, 307.476 421.890 C 308.258 410.126, 309.139 398.025, 309.433 395 C 309.726 391.975, 310.191 385.838, 310.466 381.362 C 310.740 376.885, 311.450 371.948, 312.042 370.389 C 313.853 365.627, 313.239 326.364, 311.088 309.323 C 309.481 296.595, 308.711 293.440, 305.639 287 C 303.425 282.360, 300.714 278.414, 298.530 276.652 C 296.589 275.085, 295 274.057, 295 274.367 M 324.923 278.750 C 324.881 279.163, 324.588 280.400, 324.271 281.500 C 323.955 282.600, 323.509 290.508, 323.281 299.072 C 322.956 311.318, 323.156 314.884, 324.217 315.765 C 326.138 317.360, 327.363 316.243, 330.489 310.045 C 332.855 305.355, 333.171 303.744, 332.741 298.545 C 332.076 290.502, 328.219 278, 326.403 278 C 325.631 278, 324.966 278.337, 324.923 278.750 M 290 295.466 C 290 296.741, 293.477 303, 294.185 303 C 295.539 303, 295.101 299.590, 293.443 297.223 C 292.064 295.254, 290 294.201, 290 295.466 M 435 305.943 C 435 308.371, 439.011 311.389, 440.396 310.004 C 441.033 309.367, 440.550 308.150, 439.012 306.513 C 436.179 303.497, 435 303.330, 435 305.943 M 304.697 446.393 C 304.288 447.434, 304.189 448.522, 304.476 448.810 C 305.389 449.722, 306.191 448.227, 305.809 446.328 C 305.459 444.588, 305.405 444.591, 304.697 446.393 M 304 456.500 C 304 460.258, 304.198 463.136, 304.439 462.894 C 305.181 462.153, 305.385 451.052, 304.671 450.338 C 304.302 449.969, 304 452.742, 304 456.500 M 303 472.500 C 303 477.358, 303.199 481.135, 303.442 480.892 C 304.162 480.171, 304.350 465.017, 303.647 464.313 C 303.291 463.958, 303 467.642, 303 472.500 M 302.300 487 C 302.300 490.025, 302.487 491.262, 302.716 489.750 C 302.945 488.238, 302.945 485.762, 302.716 484.250 C 302.487 482.738, 302.300 483.975, 302.300 487 M 301.195 502.500 C 301.215 504.150, 301.439 504.704, 301.693 503.731 C 301.947 502.758, 301.930 501.408, 301.656 500.731 C 301.382 500.054, 301.175 500.850, 301.195 502.500 M 285 542.268 C 285 544.316, 290.049 551.150, 291.263 550.746 C 293.456 550.015, 293.053 548.130, 289.948 544.594 C 286.679 540.871, 285 540.081, 285 542.268 M 433.885 596.750 C 433.701 597.947, 434.021 601.309, 434.550 603.750 C 435.437 607.841, 437 606.087, 437 601 C 437 597.222, 436.633 596, 435.500 596 C 434.675 596, 433.948 596.337, 433.885 596.750" stroke="none" fill="black" fill-rule="evenodd"/>
</svg>