<svg xmlns="http://www.w3.org/2000/svg" width="720" height="720" viewBox="0 0 720 720" version="1.1">
	<path d="M 0 360.001 L 0 720.003 360.250 719.751 L 720.500 719.500 720.751 359.750 L 721.003 -0 360.501 -0 L 0 0 0 360.001 M 0.495 360.500 C 0.495 558.500, 0.609 639.649, 0.750 540.831 C 0.890 442.013, 0.890 280.013, 0.750 180.831 C 0.609 81.649, 0.495 162.500, 0.495 360.500 M 463.500 71.804 C 464.050 72.361, 466.750 74.042, 469.500 75.540 C 486.841 84.988, 508.780 101.961, 525.212 118.642 C 537.397 131.012, 543.625 138.783, 555.747 156.750 C 561.036 164.587, 565.772 171, 566.273 171 C 566.774 171, 565.517 167.963, 563.480 164.250 C 546.988 134.190, 519.428 105.173, 487.956 84.731 C 479.798 79.433, 461.456 69.738, 463.500 71.804 M 350.913 75.420 C 350.682 75.651, 344.675 76.097, 337.563 76.411 C 322.592 77.073, 321.867 77.407, 310.621 88.811 C 295.531 104.112, 281.493 128.689, 272.514 155.528 C 269.423 164.765, 266.856 179, 268.280 179 C 268.586 179, 269.830 175.963, 271.043 172.250 C 274.977 160.217, 279.123 150, 280.073 150 C 280.583 150, 281 150.450, 281 151 C 281 151.550, 281.750 152, 282.667 152 C 283.583 152, 284.036 152.297, 283.673 152.660 C 283.310 153.023, 283.910 153.949, 285.006 154.717 C 286.103 155.485, 287 156.693, 287 157.402 C 287 158.110, 287.889 159.495, 288.976 160.479 C 290.063 161.462, 290.758 162.582, 290.520 162.967 C 290.283 163.352, 290.631 163.691, 291.294 163.720 C 294.334 163.853, 311.057 168.162, 316 170.086 C 320.050 171.662, 324.399 172.334, 332.500 172.637 C 338.550 172.864, 347.076 173.190, 351.446 173.362 C 355.816 173.535, 359.536 174.107, 359.712 174.635 C 359.897 175.191, 363.921 175.446, 369.266 175.241 C 374.345 175.047, 379.175 174.881, 380 174.873 C 380.825 174.865, 385.775 175.845, 391 177.052 C 398.479 178.780, 403.346 179.222, 413.881 179.130 C 422.860 179.052, 429.158 179.504, 433.025 180.507 C 441.550 182.716, 442.655 182.507, 445.395 178.167 C 447.695 174.523, 447.751 174.065, 446.521 168.917 C 442.172 150.711, 429.674 122.667, 419.096 107.378 C 411.087 95.801, 397.559 81.945, 390.820 78.413 C 387.051 76.439, 352.487 73.846, 350.913 75.420 M 427.591 91.711 C 441.196 104.810, 449.448 116.348, 459.823 136.781 C 467.334 151.573, 472.209 164.646, 476.240 180.802 C 477.982 187.786, 479.866 193.813, 480.426 194.196 C 481.044 194.619, 480.809 195.136, 479.828 195.512 C 478.910 195.865, 475.177 194.603, 471.181 192.591 C 466.256 190.111, 464.001 189.417, 463.654 190.275 C 463.381 190.949, 463.122 189.174, 463.079 186.331 C 463.030 183.149, 463.659 180.014, 464.714 178.176 C 466.239 175.519, 466.281 174.619, 465.096 169.996 C 461.682 156.677, 446.678 126.777, 438 116 C 436.007 113.525, 432.987 109.475, 431.288 107 C 429.590 104.525, 426.539 100.700, 424.509 98.500 L 420.818 94.500 423.754 98.500 C 438.679 118.834, 450.965 147.207, 458.089 177.792 C 462.158 195.259, 462.176 195.596, 459.006 195.146 C 457.634 194.951, 454.930 193.985, 452.998 192.999 C 450.940 191.949, 448.037 191.355, 445.992 191.566 C 433.582 192.845, 431.956 193.213, 431.021 194.961 C 429.987 196.892, 430.989 197.512, 439 199.893 C 449.552 203.030, 480.590 205.978, 519 207.491 C 546.805 208.587, 558.742 209.576, 562.815 211.121 C 567.348 212.842, 567.813 212.397, 566.676 207.426 C 565.778 203.501, 565.052 202.561, 561.565 200.806 C 559.329 199.681, 555.455 197.306, 552.955 195.529 C 545.782 190.429, 541.168 189.707, 507.500 188.410 C 497.600 188.029, 488.825 187.590, 488 187.435 C 487.175 187.280, 485.262 187.119, 483.750 187.077 C 481.979 187.027, 481 186.454, 481 185.467 C 481 183.702, 486.082 183.897, 538.678 187.684 L 546.856 188.273 546.592 183.248 C 546.380 179.212, 545.431 176.861, 541.763 171.294 C 531.781 156.143, 514.012 136.907, 498.500 124.460 C 480.640 110.129, 456.533 96.558, 435 88.713 C 418.540 82.716, 418.334 82.800, 427.591 91.711 M 282.377 89.449 C 271.025 93.928, 262.915 97.834, 259.703 100.370 C 258.398 101.401, 257.974 102.930, 258.153 105.959 C 258.288 108.252, 258.759 110.351, 259.199 110.623 C 259.640 110.895, 260 110.566, 260 109.892 C 260 109.218, 260.282 108.949, 260.627 109.293 C 261.672 110.339, 266.429 107.383, 279.257 97.713 C 285.991 92.638, 292.625 87.725, 294 86.795 C 298.337 83.863, 294.056 84.840, 282.377 89.449 M 563 226.167 C 563 226.808, 562.767 227.100, 562.482 226.816 C 562.198 226.531, 560.060 228.156, 557.732 230.426 C 552.986 235.054, 544.302 242.324, 542.911 242.833 C 542.410 243.017, 542 248.517, 542 255.056 L 542 266.945 526.750 266.841 C 518.362 266.784, 510.957 266.308, 510.294 265.783 C 509.630 265.258, 508.618 265.118, 508.044 265.473 C 507.345 265.905, 507 262.792, 507 256.059 C 507 250.527, 506.663 246.007, 506.250 246.015 C 503.537 246.071, 502.525 248.243, 502.576 253.901 C 502.605 257.194, 502.294 259.682, 501.884 259.428 C 501.474 259.175, 500.856 259.425, 500.510 259.984 C 500.165 260.543, 500.556 261, 501.379 261 C 502.259 261, 502.814 261.824, 502.725 263 C 502.556 265.243, 501.430 265.652, 500.662 263.750 C 500.272 262.782, 500.140 262.793, 500.079 263.798 C 500.018 264.798, 496.959 265.073, 486.750 264.997 C 468.929 264.864, 469 264.860, 469 266 C 469 266.550, 469.337 266.947, 469.750 266.882 C 471.697 266.574, 473.062 267.090, 472.539 267.936 C 471.784 269.158, 467.896 268.941, 466.058 267.573 C 464.973 266.765, 464.802 266.809, 465.367 267.750 C 465.956 268.730, 462.576 269, 449.737 269 C 437.047 269, 432.250 269.377, 428.447 270.673 C 425.746 271.593, 424.094 272.531, 424.774 272.758 C 425.651 273.050, 425.427 273.913, 424.006 275.720 C 422.322 277.860, 422 279.775, 422 287.635 C 422 292.786, 422.415 297, 422.923 297 C 423.431 297, 425.119 295.942, 426.673 294.649 C 430.801 291.215, 433.482 290, 436.934 290 C 439.006 290, 440 290.491, 440 291.515 C 440 292.348, 441.433 293.901, 443.185 294.966 C 444.937 296.032, 447.828 298.746, 449.610 300.998 C 453.013 305.298, 453.231 307.773, 450.643 312.712 C 447.760 318.214, 425.295 335, 420.814 335 C 419.951 335, 418.759 335.586, 418.164 336.302 C 416.947 337.768, 416.280 432.486, 417.402 444.500 C 419.836 470.573, 422.044 498.154, 422.966 514 C 424.747 544.601, 425.140 549, 426.090 549 C 426.590 549, 427 548.640, 427 548.200 C 427 545.950, 437.902 535.489, 442.456 533.368 C 450.494 529.625, 458.350 530.609, 455.968 535.060 C 454.216 538.334, 457.706 540.603, 466.454 541.878 C 476.045 543.275, 478.259 544.583, 479.812 549.766 C 483.546 562.231, 478.430 575.307, 465.364 586.690 C 458.337 592.812, 456.809 595, 459.559 595 C 460.495 595, 460.829 595.468, 460.395 596.170 C 459.919 596.939, 460.203 597.136, 461.223 596.745 C 462.373 596.304, 462.644 596.644, 462.274 598.060 C 461.999 599.111, 462.121 600.764, 462.545 601.735 C 463.749 604.492, 463.103 606.226, 459.469 610 C 454.835 614.811, 453.002 619.594, 453.725 624.986 C 454.199 628.523, 455.326 630.411, 459.584 634.807 C 464.634 640.022, 465.015 640.220, 468.678 639.537 C 476.063 638.160, 496.035 628.448, 523.500 612.878 C 539.595 603.754, 553.317 597.275, 562.500 594.463 C 572.896 591.281, 574.974 589.714, 578.169 582.652 C 580.233 578.090, 580.511 575.897, 580.598 563.500 C 580.670 553.130, 581.520 544.185, 583.875 529 C 596.566 447.155, 595.582 394.921, 579.428 293 C 578.077 284.475, 576.865 276.627, 576.736 275.561 C 576.556 274.083, 577.158 273.584, 579.263 273.465 C 580.783 273.378, 582.187 273.126, 582.384 272.904 C 582.581 272.682, 583.036 262.488, 583.395 250.250 L 584.048 228 573.917 228 C 565.323 228, 563.873 227.773, 564.362 226.500 C 564.678 225.675, 564.501 225, 563.969 225 C 563.436 225, 563 225.525, 563 226.167 M 412.696 262.638 C 412.313 263.020, 412 267.837, 412 273.341 L 412 283.349 414.552 280.951 C 417.910 277.796, 421 270.665, 421 266.068 C 421 262.516, 420.871 262.383, 417.196 262.167 C 415.103 262.043, 413.078 262.255, 412.696 262.638 M 463 265.861 C 463 266.335, 464.125 266.508, 465.500 266.245 C 466.875 265.982, 468 265.594, 468 265.383 C 468 265.173, 466.875 265, 465.500 265 C 464.125 265, 463 265.388, 463 265.861 M 474 267.969 C 474 268.501, 474.675 268.678, 475.500 268.362 C 476.325 268.045, 477 267.609, 477 267.393 C 477 267.177, 476.325 267, 475.500 267 C 474.675 267, 474 267.436, 474 267.969 M 298.343 278.340 C 303.268 284.871, 306.663 296.824, 308.049 312.500 C 309.232 325.887, 308.730 392.244, 307.390 399.634 C 307.109 401.186, 307.151 402.183, 307.483 401.850 C 308.318 401.016, 308.718 398.036, 309.479 387 C 309.840 381.775, 310.779 374.350, 311.566 370.500 C 312.516 365.857, 312.995 357.101, 312.988 344.500 C 312.967 307.693, 308.221 284.628, 299.199 277.494 L 295.500 274.568 298.343 278.340 M 325.464 282.750 C 325.051 283.712, 324.500 291.294, 324.239 299.598 C 323.831 312.580, 323.981 314.779, 325.309 315.288 C 327.201 316.014, 328.057 314.938, 330.797 308.391 C 332.686 303.876, 332.819 302.538, 331.940 296.891 C 330.860 289.954, 328.026 281, 326.909 281 C 326.527 281, 325.876 281.788, 325.464 282.750 M 291.701 298.500 C 293.552 302.381, 295.527 303.281, 294.445 299.750 C 293.620 297.060, 292.080 295, 290.894 295 C 290.420 295, 290.783 296.575, 291.701 298.500 M 435 306.378 C 435 308.262, 437.561 310.238, 439.479 309.833 C 440.911 309.530, 440.911 309.295, 439.471 307.250 C 437.717 304.759, 435 304.229, 435 306.378 M 286 543.365 C 286 545.038, 289.794 550, 291.073 550 C 292.654 550, 292.097 547.393, 289.927 544.635 C 287.666 541.759, 286 541.221, 286 543.365 M 434.183 599.644 C 434.358 601.765, 434.950 603.388, 435.500 603.250 C 436.988 602.878, 436.711 596.737, 435.183 596.228 C 434.213 595.904, 433.950 596.803, 434.183 599.644" stroke="none" fill="black" fill-rule="evenodd"/>
</svg>